#!OML:ASF F:\VICON\USERDATA\INSTALL\rory3\rory3.ASF
:FULLY-SPECIFIED
:DEGREES
1452
root 0.345379 17.4796 -1.82899 0.0186695 25.3619 3.46858
lowerback 5.04396 -2.66276 -4.57081
upperback -0.537553 -3.74661 2.68885
thorax -2.91071 -1.77396 5.62839
lowerneck -20.5657 -7.64023 -12.3148
upperneck 24.5212 -9.4618 9.46075
head 12.6509 -4.16926 4.02568
rclavicle -1.21569e-014 1.74931e-014
rhumerus -7.84507 4.80138 -38.0236
rradius 76.978
rwrist 29.0344
rhand -25.8551 13.2312
rfingers 7.12502
rthumb 0.685674 -16.7474
lclavicle -1.21569e-014 1.74931e-014
lhumerus -15.1121 6.4702 71.5922
lradius 57.9583
lwrist -10.9952
lhand -20.2161 15.1711
lfingers 7.12502
lthumb 6.13115 45.0623
rfemur -18.0948 -4.47858 12.957
rtibia 60.1941
rfoot -19.5351 -17.0723
rtoes 6.74623
lfemur -13.164 3.61772 -23.6915
ltibia 32.2813
lfoot -13.6827 -15.2504
ltoes 0.852233
1453
root 0.382445 17.4907 -1.84747 0.0658799 24.8962 4.0848
lowerback 5.34754 -2.77918 -5.30902
upperback -0.562134 -3.96523 2.62129
thorax -3.03506 -1.86669 6.00895
lowerneck -20.1207 -7.75489 -12.3387
upperneck 24.5844 -9.68837 9.47499
head 12.6195 -4.28346 4.00217
rclavicle 5.54796e-014 -2.06736e-014
rhumerus -8.26596 4.24798 -38.0269
rradius 76.7627
rwrist 29.0014
rhand -25.8388 13.117
rfingers 7.12502
rthumb 0.701436 -16.8616
lclavicle 5.54796e-014 -2.06736e-014
lhumerus -14.0042 5.8957 71.8465
lradius 57.6987
lwrist -11.1073
lhand -20.5321 15.1124
lfingers 7.12502
lthumb 5.8261 45.0123
rfemur -19.668 -4.086 12.1473
rtibia 62.5664
rfoot -17.6253 -17.2313
rtoes 11.4092
lfemur -12.6088 4.23574 -24.3715
ltibia 31.725
lfoot -13.6344 -15.5802
ltoes -0.215326
1454
root 0.418128 17.5049 -1.86392 -0.10879 24.4969 4.32132
lowerback 5.72632 -2.96653 -5.73272
upperback -0.567099 -4.2611 2.68147
thorax -3.17714 -2.00112 6.3567
lowerneck -19.7706 -7.77479 -12.3741
upperneck 24.6361 -9.74502 9.43682
head 12.5771 -4.32791 3.99063
rclavicle 5.49329e-014 7.95139e-015
rhumerus -8.60409 3.55268 -38.2442
rradius 76.389
rwrist 29.1916
rhand -25.7535 13.1111
rfingers 7.12502
rthumb 0.783845 -16.8672
lclavicle 5.49329e-014 7.95139e-015
lhumerus -12.9631 5.31592 72.0827
lradius 57.4047
lwrist -10.9303
lhand -21.4183 14.6693
lfingers 7.12502
lthumb 4.9705 44.591
rfemur -21.1829 -3.77953 11.7593
rtibia 64.9126
rfoot -16.2603 -16.7157
rtoes 15.5299
lfemur -12.01 4.79473 -24.6754
ltibia 31.1053
lfoot -13.4523 -15.8279
ltoes -2.22551
1455
root 0.456861 17.5209 -1.88515 -0.222031 24.1533 4.37579
lowerback 5.9661 -3.20591 -5.85893
upperback -0.483372 -4.59817 2.76136
thorax -3.15779 -2.16984 6.54699
lowerneck -19.7516 -7.73061 -12.3969
upperneck 24.6392 -9.69705 9.49839
head 12.5732 -4.30264 4.02809
rclavicle 4.41302e-014 -7.15625e-015
rhumerus -8.84065 2.87048 -38.4698
rradius 76.0244
rwrist 29.3855
rhand -25.6628 13.1594
rfingers 7.12502
rthumb 0.871419 -16.8186
lclavicle 4.41302e-014 -7.15625e-015
lhumerus -11.7049 4.93211 72.2551
lradius 57.1861
lwrist -11.0134
lhand -21.3716 14.3983
lfingers 7.12502
lthumb 5.01559 44.319
rfemur -22.9004 -3.62807 11.5477
rtibia 67.1975
rfoot -15.3721 -15.6342
rtoes 17.4285
lfemur -11.6128 5.13897 -24.8505
ltibia 30.4935
lfoot -13.2341 -15.8354
ltoes -3.52588
1456
root 0.498352 17.5353 -1.90577 -0.216138 23.773 4.44315
lowerback 6.03374 -3.48128 -5.97853
upperback -0.316381 -4.97282 2.84429
thorax -2.94638 -2.3684 6.72127
lowerneck -20.2054 -7.64917 -12.2627
upperneck 24.7989 -9.56779 9.44722
head 12.6996 -4.22616 4.00486
rclavicle -4.61429e-014 1.27222e-014
rhumerus -8.89392 2.32089 -38.6302
rradius 75.7602
rwrist 29.6097
rhand -25.7815 13.2769
rfingers 7.12502
rthumb 0.756792 -16.7015
lclavicle -4.61429e-014 1.27222e-014
lhumerus -10.3763 4.57875 72.3127
lradius 57.0348
lwrist -11.2979
lhand -21.2824 14.7041
lfingers 7.12502
lthumb 5.10166 44.6227
rfemur -24.7871 -3.43769 11.3154
rtibia 69.4135
rfoot -15.0966 -14.5475
rtoes 16.5765
lfemur -11.3062 5.26138 -25.0649
ltibia 29.9074
lfoot -13.1256 -15.5897
ltoes -4.09528
1457
root 0.540833 17.5431 -1.92368 -0.196107 23.4248 4.65786
lowerback 6.13681 -3.77417 -6.23575
upperback -0.219419 -5.38556 2.88467
thorax -2.81072 -2.5797 6.93572
lowerneck -20.4361 -7.50751 -12.2037
upperneck 24.9822 -9.37002 9.44155
head 12.7893 -4.12801 4.03082
rclavicle 1.83627e-014 -3.02153e-014
rhumerus -9.16064 1.94736 -38.7814
rradius 75.7133
rwrist 29.7248
rhand -25.7187 13.5555
rfingers 7.12502
rthumb 0.817443 -16.4227
lclavicle 1.83627e-014 -3.02153e-014
lhumerus -9.38256 4.06888 72.2915
lradius 57.076
lwrist -11.3216
lhand -21.6823 15.5136
lfingers 7.12502
lthumb 4.7155 45.4411
rfemur -26.6213 -3.34547 10.9381
rtibia 71.6077
rfoot -15.1004 -13.7098
rtoes 13.96
lfemur -10.88 5.31862 -25.4153
ltibia 29.308
lfoot -12.9931 -15.333
ltoes -3.76146
1458
root 0.581209 17.5546 -1.937 -0.328023 23.1723 4.69028
lowerback 6.35751 -4.09541 -6.35871
upperback -0.234536 -5.83293 2.99149
thorax -2.85401 -2.79901 7.16323
lowerneck -20.2045 -7.3653 -12.3582
upperneck 25.0852 -9.1754 9.52113
head 12.7714 -4.05525 4.13225
rclavicle -4.71368e-014 0
rhumerus -9.61191 1.87352 -38.8291
rradius 75.7114
rwrist 29.6718
rhand -25.4456 13.8286
rfingers 7.12502
rthumb 1.08119 -16.1484
lclavicle -4.71368e-014 0
lhumerus -8.61203 3.70728 72.2768
lradius 57.1242
lwrist -11.2866
lhand -21.2272 15.6127
lfingers 7.12502
lthumb 5.155 45.53
rfemur -28.3487 -3.32543 10.7906
rtibia 73.726
rfoot -15.0986 -12.966
rtoes 12.1676
lfemur -10.2899 5.31722 -25.5608
ltibia 28.6145
lfoot -12.7759 -15.0915
ltoes -1.69027
1459
root 0.621212 17.5762 -1.95216 -0.456849 22.8863 4.56677
lowerback 6.60377 -4.38859 -6.28972
upperback -0.283994 -6.22839 3.14468
thorax -2.96747 -2.99056 7.33525
lowerneck -19.9528 -7.26583 -12.4763
upperneck 25.0719 -9.00985 9.47467
head 12.6967 -4.00814 4.16889
rclavicle 7.72775e-014 2.8625e-014
rhumerus -10.0564 1.72936 -38.8944
rradius 75.6944
rwrist 29.8095
rhand -25.3457 13.9442
rfingers 7.12502
rthumb 1.17771 -16.0323
lclavicle 7.72775e-014 2.8625e-014
lhumerus -7.75832 3.46943 72.3849
lradius 57.0371
lwrist -11.3831
lhand -20.2898 14.8901
lfingers 7.12502
lthumb 6.06003 44.7835
rfemur -30.2139 -3.24703 10.8123
rtibia 75.706
rfoot -14.8241 -12.0593
rtoes 10.3421
lfemur -9.79619 5.21404 -25.5661
ltibia 27.8628
lfoot -12.496 -14.7176
ltoes 0.463086
1460
root 0.659513 17.6056 -1.9687 -0.446437 22.5789 4.55409
lowerback 6.79456 -4.65826 -6.32854
upperback -0.289265 -6.59765 3.27659
thorax -2.99719 -3.17278 7.53702
lowerneck -20.009 -7.20871 -12.5249
upperneck 25.1231 -8.8797 9.37663
head 12.7081 -3.96727 4.16289
rclavicle -1.29707e-014 4.13472e-014
rhumerus -10.3516 1.36286 -39.0021
rradius 75.72
rwrist 30.215
rhand -25.3498 14.0529
rfingers 7.12502
rthumb 1.17374 -15.9236
lclavicle -1.29707e-014 4.13472e-014
lhumerus -6.82576 2.90698 72.4331
lradius 57.1454
lwrist -11.0948
lhand -19.9838 14.837
lfingers 7.12502
lthumb 6.35543 44.7216
rfemur -32.2537 -3.20876 10.7331
rtibia 77.5789
rfoot -14.304 -10.9627
rtoes 9.24057
lfemur -9.48009 5.22354 -25.7162
ltibia 27.1374
lfoot -12.4257 -14.2706
ltoes -1.62458
1461
root 0.693976 17.6319 -1.98154 -0.467915 22.2408 4.44215
lowerback 6.94702 -4.93458 -6.34101
upperback -0.279967 -6.97049 3.43483
thorax -2.98682 -3.35971 7.74762
lowerneck -20.1956 -7.11069 -12.5525
upperneck 25.3049 -8.71481 9.3558
head 12.7969 -3.89613 4.1921
rclavicle 8.51792e-014 -2.06736e-014
rhumerus -10.7699 1.40436 -38.9254
rradius 75.8663
rwrist 30.2207
rhand -25.3746 14.1427
rfingers 7.12502
rthumb 1.14973 -15.834
lclavicle 8.51792e-014 -2.06736e-014
lhumerus -5.9605 2.34157 72.4147
lradius 57.3269
lwrist -10.78
lhand -20.468 15.0544
lfingers 7.12502
lthumb 5.88799 44.9526
rfemur -34.3024 -3.11042 10.8002
rtibia 79.3911
rfoot -13.9769 -9.84851
rtoes 9.93057
lfemur -9.15915 5.47597 -25.7707
ltibia 26.4511
lfoot -12.6001 -13.8617
ltoes -6.38822
1462
root 0.727087 17.6553 -1.99422 -0.468595 21.7876 4.29652
lowerback 7.07572 -5.16594 -6.32694
upperback -0.302989 -7.2798 3.60492
thorax -3.00767 -3.51285 7.95283
lowerneck -20.3673 -7.04652 -12.5556
upperneck 25.5294 -8.57744 9.22169
head 12.8967 -3.85002 4.16848
rclavicle -3.48867e-014 -2.54444e-014
rhumerus -11.5706 1.74827 -38.6773
rradius 76.0114
rwrist 29.9857
rhand -25.497 14.3723
rfingers 7.12502
rthumb 1.03157 -15.6049
lclavicle -3.48867e-014 -2.54444e-014
lhumerus -5.07655 2.11885 72.5355
lradius 57.2482
lwrist -10.8068
lhand -20.8237 15.0196
lfingers 7.12502
lthumb 5.5446 44.9271
rfemur -36.4382 -2.91582 10.9385
rtibia 81.1759
rfoot -13.8437 -9.04505
rtoes 9.67213
lfemur -8.81884 5.66554 -25.7697
ltibia 25.7209
lfoot -12.5555 -13.4487
ltoes -8.39238
